HIERARCHY
ROOT hip
{
  OFFSET 0 90.174 2.4664
  CHANNELS 6 Xposition Yposition Zposition Zrotation Xrotation Yrotation
  JOINT abdomen
  {
    OFFSET 0 -1.186 -1.5018
    CHANNELS 6 Xposition Yposition Zposition Zrotation Xrotation Yrotation
    JOINT abdomen2
    {
      OFFSET 0 9.964 0.2134
      CHANNELS 6 Xposition Yposition Zposition Zrotation Xrotation Yrotation
      JOINT chest
      {
        OFFSET 0 13.134 -3.2573
        CHANNELS 6 Xposition Yposition Zposition Zrotation Xrotation Yrotation
        JOINT neck
        {
          OFFSET 0 20.686 -1.6905
          CHANNELS 6 Xposition Yposition Zposition Zrotation Xrotation Yrotation
          JOINT head
          {
            OFFSET 0 7.238 -0.1237
            CHANNELS 6 Xposition Yposition Zposition Zrotation Xrotation Yrotation
            End Site
            {
              OFFSET 0 0 0
            }
          }
        }
        JOINT lCollar
        {
          OFFSET 1.7069 20.075 5.0056
          CHANNELS 6 Xposition Yposition Zposition Zrotation Xrotation Yrotation
          JOINT lShldr
          {
            OFFSET 13.6458 -0.047 -4.849
            CHANNELS 6 Xposition Yposition Zposition Zrotation Xrotation Yrotation
            JOINT lForeArm
            {
              OFFSET 28.3255 -0.9759 2.2888
              CHANNELS 6 Xposition Yposition Zposition Zrotation Xrotation Yrotation
              JOINT lHand
              {
                OFFSET 22.1583 -0.53 10.8316
                CHANNELS 6 Xposition Yposition Zposition Zrotation Xrotation Yrotation
                JOINT lThumb1
                {
                  OFFSET 0.786 0.112 2.5817
                  CHANNELS 6 Xposition Yposition Zposition Zrotation Xrotation Yrotation
                  JOINT lThumb2
                  {
                    OFFSET 0.3601 -0.878 4.2331
                    CHANNELS 6 Xposition Yposition Zposition Zrotation Xrotation Yrotation
                    JOINT lThumb2_End
                    {
                      OFFSET 1.8127 -1.216 2.2227
                      CHANNELS 6 Xposition Yposition Zposition Zrotation Xrotation Yrotation
                      End Site
                      {
                        OFFSET 0.0181 -0.0122 0.0222
                      }
                    }
                  }
                }
                JOINT lCarpal1
                {
                  OFFSET 0.9571 1.114 1.7695
                  CHANNELS 6 Xposition Yposition Zposition Zrotation Xrotation Yrotation
                  JOINT lIndex1
                  {
                    OFFSET 4.1246 0.487 4.1451
                    CHANNELS 6 Xposition Yposition Zposition Zrotation Xrotation Yrotation
                    JOINT lIndex2
                    {
                      OFFSET 3.4052 -1.454 2.7682
                      CHANNELS 6 Xposition Yposition Zposition Zrotation Xrotation Yrotation
                      JOINT lIndex2_End
                      {
                        OFFSET 1.4531 -1.795 1.2713
                        CHANNELS 6 Xposition Yposition Zposition Zrotation Xrotation Yrotation
                        End Site
                        {
                          OFFSET 0.0145 -0.0179 0.0127
                        }
                      }
                    }
                  }
                  JOINT lMid1
                  {
                    OFFSET 5.6954 0.21 2.1184
                    CHANNELS 6 Xposition Yposition Zposition Zrotation Xrotation Yrotation
                    JOINT lMid2
                    {
                      OFFSET 3.9766 -1.54 2.3863
                      CHANNELS 6 Xposition Yposition Zposition Zrotation Xrotation Yrotation
                      JOINT lMid2_End
                      {
                        OFFSET 1.4042 -1.926 1.125
                        CHANNELS 6 Xposition Yposition Zposition Zrotation Xrotation Yrotation
                        End Site
                        {
                          OFFSET 0.014 -0.0193 0.0113
                        }
                      }
                    }
                  }
                }
                JOINT lCarpal2
                {
                  OFFSET 2.0956 0.66 -0.3894
                  CHANNELS 6 Xposition Yposition Zposition Zrotation Xrotation Yrotation
                  JOINT lRing1
                  {
                    OFFSET 5.0395 -0.09 2.4971
                    CHANNELS 6 Xposition Yposition Zposition Zrotation Xrotation Yrotation
                    JOINT lRing2
                    {
                      OFFSET 3.7921 -1.552 1.4806
                      CHANNELS 6 Xposition Yposition Zposition Zrotation Xrotation Yrotation
                      JOINT lRing2_End
                      {
                        OFFSET 1.4655 -1.808 0.9609
                        CHANNELS 6 Xposition Yposition Zposition Zrotation Xrotation Yrotation
                        End Site
                        {
                          OFFSET 0.0147 -0.0181 0.0096
                        }
                      }
                    }
                  }
                  JOINT lPinky1
                  {
                    OFFSET 4.9141 -1.269 0.3591
                    CHANNELS 6 Xposition Yposition Zposition Zrotation Xrotation Yrotation
                    JOINT lPinky2
                    {
                      OFFSET 3.1477 -1.685 0.8462
                      CHANNELS 6 Xposition Yposition Zposition Zrotation Xrotation Yrotation
                      JOINT lPinky2_End
                      {
                        OFFSET 0.8055 -1.585 0.7955
                        CHANNELS 6 Xposition Yposition Zposition Zrotation Xrotation Yrotation
                        End Site
                        {
                          OFFSET 0.0081 -0.0158 0.008
                        }
                      }
                    }
                  }
                }
              }
            }
          }
        }
        JOINT rCollar
        {
          OFFSET -1.7069 20.075 5.0056
          CHANNELS 6 Xposition Yposition Zposition Zrotation Xrotation Yrotation
          JOINT rShldr
          {
            OFFSET -13.6458 -0.047 -4.849
            CHANNELS 6 Xposition Yposition Zposition Zrotation Xrotation Yrotation
            JOINT rForeArm
            {
              OFFSET -28.3255 -0.9759 2.2888
              CHANNELS 6 Xposition Yposition Zposition Zrotation Xrotation Yrotation
              JOINT rHand
              {
                OFFSET -22.1583 -0.53 10.8316
                CHANNELS 6 Xposition Yposition Zposition Zrotation Xrotation Yrotation
                JOINT rThumb1
                {
                  OFFSET -0.786 0.112 2.5817
                  CHANNELS 6 Xposition Yposition Zposition Zrotation Xrotation Yrotation
                  JOINT rThumb2
                  {
                    OFFSET -0.3601 -0.878 4.2331
                    CHANNELS 6 Xposition Yposition Zposition Zrotation Xrotation Yrotation
                    JOINT rThumb2_End
                    {
                      OFFSET -1.8127 -1.216 2.2227
                      CHANNELS 6 Xposition Yposition Zposition Zrotation Xrotation Yrotation
                      End Site
                      {
                        OFFSET -0.0181 -0.0122 0.0222
                      }
                    }
                  }
                }
                JOINT rCarpal1
                {
                  OFFSET -0.9571 1.114 1.7695
                  CHANNELS 6 Xposition Yposition Zposition Zrotation Xrotation Yrotation
                  JOINT rIndex1
                  {
                    OFFSET -4.1246 0.487 4.1451
                    CHANNELS 6 Xposition Yposition Zposition Zrotation Xrotation Yrotation
                    JOINT rIndex2
                    {
                      OFFSET -3.4052 -1.454 2.7682
                      CHANNELS 6 Xposition Yposition Zposition Zrotation Xrotation Yrotation
                      JOINT rIndex2_End
                      {
                        OFFSET -1.4531 -1.795 1.2713
                        CHANNELS 6 Xposition Yposition Zposition Zrotation Xrotation Yrotation
                        End Site
                        {
                          OFFSET -0.0145 -0.018 0.0127
                        }
                      }
                    }
                  }
                  JOINT rMid1
                  {
                    OFFSET -5.6954 0.21 2.1184
                    CHANNELS 6 Xposition Yposition Zposition Zrotation Xrotation Yrotation
                    JOINT rMid2
                    {
                      OFFSET -3.9766 -1.54 2.3863
                      CHANNELS 6 Xposition Yposition Zposition Zrotation Xrotation Yrotation
                      JOINT rMid2_End
                      {
                        OFFSET -1.4042 -1.926 1.125
                        CHANNELS 6 Xposition Yposition Zposition Zrotation Xrotation Yrotation
                        End Site
                        {
                          OFFSET -0.014 -0.0193 0.0113
                        }
                      }
                    }
                  }
                }
                JOINT rCarpal2
                {
                  OFFSET -2.0956 0.66 -0.3894
                  CHANNELS 6 Xposition Yposition Zposition Zrotation Xrotation Yrotation
                  JOINT rRing1
                  {
                    OFFSET -5.0395 -0.09 2.4971
                    CHANNELS 6 Xposition Yposition Zposition Zrotation Xrotation Yrotation
                    JOINT rRing2
                    {
                      OFFSET -3.7921 -1.552 1.4806
                      CHANNELS 6 Xposition Yposition Zposition Zrotation Xrotation Yrotation
                      JOINT rRing2_End
                      {
                        OFFSET -1.4655 -1.808 0.9609
                        CHANNELS 6 Xposition Yposition Zposition Zrotation Xrotation Yrotation
                        End Site
                        {
                          OFFSET -0.0147 -0.0181 0.0096
                        }
                      }
                    }
                  }
                  JOINT rPinky1
                  {
                    OFFSET -4.9141 -1.269 0.3592
                    CHANNELS 6 Xposition Yposition Zposition Zrotation Xrotation Yrotation
                    JOINT rPinky2
                    {
                      OFFSET -3.1477 -1.685 0.8462
                      CHANNELS 6 Xposition Yposition Zposition Zrotation Xrotation Yrotation
                      JOINT rPinky2_End
                      {
                        OFFSET -0.8055 -1.585 0.7955
                        CHANNELS 6 Xposition Yposition Zposition Zrotation Xrotation Yrotation
                        End Site
                        {
                          OFFSET -0.0081 -0.0158 0.008
                        }
                      }
                    }
                  }
                }
              }
            }
          }
        }
      }
    }
  }
  JOINT lThigh
  {
    OFFSET 8.367 -8.2066 0.5982
    CHANNELS 6 Xposition Yposition Zposition Zrotation Xrotation Yrotation
    JOINT lShin
    {
      OFFSET 2.1923 -43.463 -0.4932
      CHANNELS 6 Xposition Yposition Zposition Zrotation Xrotation Yrotation
      JOINT lFoot
      {
        OFFSET 0.7333 -45.8593 -2.6451
        CHANNELS 6 Xposition Yposition Zposition Zrotation Xrotation Yrotation
        End Site
        {
          OFFSET 2.6618 -4.2699 12.3931
        }
      }
    }
  }
  JOINT rThigh
  {
    OFFSET -8.367 -8.2066 0.5982
    CHANNELS 6 Xposition Yposition Zposition Zrotation Xrotation Yrotation
    JOINT rShin
    {
      OFFSET -2.1923 -43.463 -0.4931
      CHANNELS 6 Xposition Yposition Zposition Zrotation Xrotation Yrotation
      JOINT rFoot
      {
        OFFSET -0.7333 -45.8593 -2.6451
        CHANNELS 6 Xposition Yposition Zposition Zrotation Xrotation Yrotation
        End Site
        {
          OFFSET -2.6618 -4.2699 12.3931
        }
      }
    }
  }
}
MOTION
Frames:	4
Frame Time:	0.0333333
0 90.174 2.4664 0 0 -0 0 -1.186 -1.5018 0 0 -0 0 9.964 0.2134 0 0 -0 0 13.134 -3.2573 0 0 -0 0 20.686 -1.6905 0 0 -0 0 7.238 -0.1237 0 0 -0 1.7069 20.075 5.0056 0 0 -0 13.6458 -0.047 -4.849 1.66051 0.0835086 5.75766 28.3255 -0.9759 2.2888 -0.0175111 0.895433 15.7816 22.1583 -0.53 10.8316 7.95139e-016 -1.98785e-016 -0 0.786 0.112 2.5817 5.46658e-016 -3.97569e-016 -0 0.3601 -0.878 4.2331 5.96354e-016 0 -0 1.8127 -1.216 2.2227 3.97569e-016 1.98785e-016 9.54166e-015 0.9571 1.114 1.7695 1.49089e-016 -3.97569e-016 -0 4.1246 0.487 4.1451 6.4605e-016 0 3.18055e-015 3.4052 -1.454 2.7682 5.96354e-016 0 3.18055e-015 1.4531 -1.795 1.2713 8.94531e-016 -1.98785e-016 6.36111e-015 5.6954 0.21 2.1184 6.4605e-016 0 3.18055e-015 3.9766 -1.54 2.3863 5.96354e-016 0 3.18055e-015 1.4042 -1.926 1.125 8.94531e-016 -1.98785e-016 6.36111e-015 2.0956 0.66 -0.3894 1.49089e-016 -3.97569e-016 -0 5.0395 -0.09 2.4971 6.4605e-016 0 3.18055e-015 3.7921 -1.552 1.4806 5.96354e-016 0 3.18055e-015 1.4655 -1.808 0.9609 8.94531e-016 -1.98785e-016 6.36111e-015 4.9141 -1.269 0.3591 6.4605e-016 0 3.18055e-015 3.1477 -1.685 0.8462 5.96354e-016 0 3.18055e-015 0.8055 -1.585 0.7955 8.94531e-016 -1.98785e-016 6.36111e-015 -1.7069 20.075 5.0056 0 0 -0 -13.6458 -0.047 -4.849 -1.4496 0.0636048 -5.0245 -28.3255 -0.9759 2.2888 -1.74811 1.20616 -16.8394 -22.1583 -0.53 10.8316 -1.19271e-015 1.98785e-016 -3.18055e-015 -0.786 0.112 2.5817 -3.97569e-016 1.98785e-016 -3.18055e-015 -0.3601 -0.878 4.2331 -2.98177e-016 1.98785e-016 -3.18055e-015 -1.8127 -1.216 2.2227 -2.98177e-016 3.97569e-016 -0 -0.9571 1.114 1.7695 4.96962e-016 0 -6.36111e-015 -4.1246 0.487 4.1451 -9.93923e-017 3.97569e-016 -0 -3.4052 -1.454 2.7682 -8.94531e-016 5.96354e-016 -0 -1.4531 -1.795 1.2713 -3.97569e-016 3.97569e-016 -0 -5.6954 0.21 2.1184 -9.93923e-017 3.97569e-016 -0 -3.9766 -1.54 2.3863 -8.94531e-016 5.96354e-016 -0 -1.4042 -1.926 1.125 -3.97569e-016 3.97569e-016 -0 -2.0956 0.66 -0.3894 4.96962e-016 0 -6.36111e-015 -5.0395 -0.09 2.4971 -9.93923e-017 3.97569e-016 -0 -3.7921 -1.552 1.4806 -8.94531e-016 5.96354e-016 -0 -1.4655 -1.808 0.9609 -3.97569e-016 3.97569e-016 -0 -4.9141 -1.269 0.3592 -9.93923e-017 3.97569e-016 -0 -3.1477 -1.685 0.8462 -8.94531e-016 5.96354e-016 -0 -0.8055 -1.585 0.7955 -3.97569e-016 3.97569e-016 -0 8.367 -8.2066 0.5982 -4.66115 -1.03232 0.120763 2.1923 -43.463 -0.4932 0.00990601 1.55097 0.177175 0.7333 -45.8593 -2.6451 4.65196 -0.54114 -0.255042 -8.367 -8.2066 0.5982 4.66115 -1.03222 -0.120763 -2.1923 -43.463 -0.4931 -0.00990459 1.5509 -0.177176 -0.7333 -45.8593 -2.6451 -4.65196 -0.541171 0.255041 
-4.80169 89.3494 -1.70741 12.2539 -6.84572 -113.93 -4.44089e-016 -1.186 -1.5018 0.0164844 5.90772 -0.119542 -4.44089e-016 9.964 0.2134 0.0457408 11.8154 -0.242556 0 13.134 -3.2573 0.045757 11.8154 -0.24258 0 20.686 -1.6905 0.00199201 -0.00102147 0.00312671 0 7.238 -0.1237 0.00206487 -0.00645716 0.000117803 1.7069 20.075 5.0056 -35.5838 -28.8493 -13.0684 13.6458 -0.047 -4.849 -9.82843 1.51564 9.63489 28.3255 -0.9759 2.2888 -1.22912 -12.4914 15.8955 22.1583 -0.53 10.8316 -16.9371 -1.99298 -19.1453 0.786 0.112 2.5817 -2.50095e-007 4.03674e-006 2.05427e-006 0.3601 -0.878 4.2331 -5.51738e-033 7.95139e-016 3.97569e-016 1.8127 -1.216 2.2227 9.54166e-015 0 7.95139e-016 0.9571 1.114 1.7695 9.54166e-015 0 1.98785e-016 4.1246 0.487 4.1451 -2.50095e-007 4.03674e-006 2.05427e-006 3.4052 -1.454 2.7682 3.18055e-015 7.95139e-016 1.98785e-016 1.4531 -1.795 1.2713 3.18055e-015 3.97569e-016 3.97569e-016 5.6954 0.21 2.1184 -2.50095e-007 4.03674e-006 2.05427e-006 3.9766 -1.54 2.3863 3.18055e-015 7.95139e-016 1.98785e-016 1.4042 -1.926 1.125 3.18055e-015 3.97569e-016 3.97569e-016 2.0956 0.66 -0.3894 9.54166e-015 0 1.98785e-016 5.0395 -0.09 2.4971 -2.50095e-007 4.03674e-006 2.05427e-006 3.7921 -1.552 1.4806 3.18055e-015 7.95139e-016 1.98785e-016 1.4655 -1.808 0.9609 3.18055e-015 3.97569e-016 3.97569e-016 4.9141 -1.269 0.3591 -2.50095e-007 4.03674e-006 2.05427e-006 3.1477 -1.685 0.8462 3.18055e-015 7.95139e-016 1.98785e-016 0.8055 -1.585 0.7955 3.18055e-015 3.97569e-016 3.97569e-016 -1.7069 20.075 5.0056 6.20889 -32.8736 5.4245 -13.6458 -0.047 -4.849 9.09038 -0.616852 -24.3337 -28.3255 -0.9759 2.2888 49.5864 0.204767 -8.16268 -22.1583 -0.53 10.8316 4.90626 4.88525 26.2143 -0.786 0.112 2.5817 -3.18055e-015 0 -1.59028e-015 -0.3601 -0.878 4.2331 -1.27541e-006 -2.5344e-006 1.69266e-006 -1.8127 -1.216 2.2227 -5.29669e-031 6.36111e-015 4.77083e-015 -0.9571 1.114 1.7695 0 0 -3.18055e-015 -4.1246 0.487 4.1451 -7.95139e-015 -9.54166e-015 3.18055e-015 -3.4052 -1.454 2.7682 -1.27541e-006 -2.5344e-006 1.69266e-006 -1.4531 -1.795 1.2713 -1.59028e-015 0 3.18055e-015 -5.6954 0.21 2.1184 -7.95139e-015 -9.54166e-015 3.18055e-015 -3.9766 -1.54 2.3863 -1.27541e-006 -2.5344e-006 1.69266e-006 -1.4042 -1.926 1.125 -1.59028e-015 0 3.18055e-015 -2.0956 0.66 -0.3894 0 0 -3.18055e-015 -5.0395 -0.09 2.4971 -7.95139e-015 -9.54166e-015 3.18055e-015 -3.7921 -1.552 1.4806 -1.27541e-006 -2.5344e-006 1.69266e-006 -1.4655 -1.808 0.9609 -1.59028e-015 0 3.18055e-015 -4.9141 -1.269 0.3592 -7.95139e-015 -9.54166e-015 3.18055e-015 -3.1477 -1.685 0.8462 -1.27541e-006 -2.5344e-006 1.69266e-006 -0.8055 -1.585 0.7955 -1.59028e-015 0 3.18055e-015 8.367 -8.2066 0.5982 29.543 20.4609 64.1098 2.1923 -43.463 -0.4932 31.81 56.834 -54.6093 0.7333 -45.8593 -2.6451 10.6088 29.0825 16.0535 -8.367 -8.2066 0.5982 -87.9013 -69.9633 -107.835 -2.1923 -43.463 -0.4931 -43.1244 77.3752 47.0585 -0.7333 -45.8593 -2.6451 -0.689416 -15.2215 -1.63071 
-1.1431 87.4914 -7.34596 -5.18345 -25.6066 178.015 -8.88178e-016 -1.186 -1.5018 0.0503758 9.42015 -0.195642 -8.88178e-016 9.964 0.2134 0.13672 18.8401 -0.408284 0 13.134 -3.2573 0.13672 18.8401 -0.408283 8.88178e-016 20.686 -1.6905 -0.0040433 0.00421298 -0.00596333 0 7.238 -0.1237 -0.00391134 0.012203 -0.00022448 1.7069 20.075 5.0056 -63.9634 -43.8406 -25.5436 13.6458 -0.047 -4.849 -16.7683 2.42183 12.2932 28.3255 -0.9759 2.2888 -2.64204 -20.2062 15.7671 22.1583 -0.53 10.8316 -28.2877 -1.44693 -29.7865 0.786 0.112 2.5817 -1.59028e-015 6.36111e-015 -3.18055e-015 0.3601 -0.878 4.2331 2.64834e-031 3.18055e-015 -4.77083e-015 1.8127 -1.216 2.2227 -1.41167e-006 3.31825e-006 -5.29924e-006 0.9571 1.114 1.7695 -4.77083e-015 6.36111e-015 -1.59028e-015 4.1246 0.487 4.1451 1.59028e-015 3.18055e-015 -3.18055e-015 3.4052 -1.454 2.7682 2.64834e-031 3.18055e-015 -4.77083e-015 1.4531 -1.795 1.2713 -1.41167e-006 3.31825e-006 -5.29924e-006 5.6954 0.21 2.1184 1.59028e-015 3.18055e-015 -3.18055e-015 3.9766 -1.54 2.3863 2.64834e-031 3.18055e-015 -4.77083e-015 1.4042 -1.926 1.125 -1.41167e-006 3.31825e-006 -5.29924e-006 2.0956 0.66 -0.3894 -4.77083e-015 6.36111e-015 -1.59028e-015 5.0395 -0.09 2.4971 1.59028e-015 3.18055e-015 -3.18055e-015 3.7921 -1.552 1.4806 2.64834e-031 3.18055e-015 -4.77083e-015 1.4655 -1.808 0.9609 -1.41167e-006 3.31825e-006 -5.29924e-006 4.9141 -1.269 0.3591 1.59028e-015 3.18055e-015 -3.18055e-015 3.1477 -1.685 0.8462 2.64834e-031 3.18055e-015 -4.77083e-015 0.8055 -1.585 0.7955 -1.41167e-006 3.31825e-006 -5.29924e-006 -1.7069 20.075 5.0056 14.2611 -51.7653 11.7206 -13.6458 -0.047 -4.849 14.9652 -0.878308 -35.5988 -28.3255 -0.9759 2.2888 80.2639 -1.35413 -4.41764 -22.1583 -0.53 10.8316 6.94696 6.03391 41.2043 -0.786 0.112 2.5817 -2.38542e-015 -3.18055e-015 -1.59028e-015 -0.3601 -0.878 4.2331 0 0 -0 -1.8127 -1.216 2.2227 -3.97569e-015 0 -1.59028e-015 -0.9571 1.114 1.7695 -0 -6.36111e-015 -0 -4.1246 0.487 4.1451 3.18055e-015 -3.18055e-015 3.18055e-015 -3.4052 -1.454 2.7682 2.64834e-031 3.18055e-015 -4.77083e-015 -1.4531 -1.795 1.2713 -7.95139e-016 0 -1.59028e-015 -5.6954 0.21 2.1184 3.18055e-015 -3.18055e-015 3.18055e-015 -3.9766 -1.54 2.3863 2.64834e-031 3.18055e-015 -4.77083e-015 -1.4042 -1.926 1.125 -7.95139e-016 0 -1.59028e-015 -2.0956 0.66 -0.3894 -0 -6.36111e-015 -0 -5.0395 -0.09 2.4971 3.18055e-015 -3.18055e-015 3.18055e-015 -3.7921 -1.552 1.4806 2.64834e-031 3.18055e-015 -4.77083e-015 -1.4655 -1.808 0.9609 -7.95139e-016 0 -1.59028e-015 -4.9141 -1.269 0.3592 3.18055e-015 -3.18055e-015 3.18055e-015 -3.1477 -1.685 0.8462 2.64834e-031 3.18055e-015 -4.77083e-015 -0.8055 -1.585 0.7955 -7.95139e-016 0 -1.59028e-015 8.367 -8.2066 0.5982 35.1717 3.70302 91.3006 2.1923 -43.463 -0.4932 81.9836 43.4494 -104.826 0.7333 -45.8593 -2.6451 1.15629 42.5092 32.4021 -8.367 -8.2066 0.5982 -137.158 -24.7945 -147.552 -2.1923 -43.463 -0.4931 -153.646 50.2892 152.61 -0.7333 -45.8593 -2.6451 1.02005 -20.894 -3.2952 
-2.20775 87.7122 -6.56591 -1.15228 -23.0382 -172.941 -8.88178e-016 -1.186 -1.5018 0.0444642 9.16933 -0.186697 -8.88178e-016 9.964 0.2134 0.122053 18.3385 -0.388334 8.88178e-016 13.134 -3.2573 0.12205 18.3385 -0.388332 -1.77636e-015 20.686 -1.6905 -0.0236888 0.0205722 -0.0343763 0 7.238 -0.1237 -0.0225474 0.0703507 -0.00129498 1.7069 20.075 5.0056 -58.682 -42.3665 -23.8614 13.6458 -0.047 -4.849 -16.3246 2.52246 13.0277 28.3255 -0.9759 2.2888 -4.2531 -19.0121 15.6814 22.1583 -0.53 10.8316 -26.0712 -1.35928 -29.0237 0.786 0.112 2.5817 -7.38562e-007 1.65313e-006 -2.60071e-006 0.3601 -0.878 4.2331 2.56771e-006 3.13026e-006 -5.14696e-006 1.8127 -1.216 2.2227 5.34565e-007 4.25384e-006 -9.47574e-007 0.9571 1.114 1.7695 -3.18055e-015 -9.54166e-015 4.77083e-015 4.1246 0.487 4.1451 -7.38562e-007 1.65313e-006 -2.60071e-006 3.4052 -1.454 2.7682 2.56771e-006 3.13026e-006 -5.14696e-006 1.4531 -1.795 1.2713 5.34565e-007 4.25384e-006 -9.47574e-007 5.6954 0.21 2.1184 -7.38562e-007 1.65313e-006 -2.60071e-006 3.9766 -1.54 2.3863 2.56771e-006 3.13026e-006 -5.14696e-006 1.4042 -1.926 1.125 5.34565e-007 4.25384e-006 -9.47574e-007 2.0956 0.66 -0.3894 -3.18055e-015 -9.54166e-015 4.77083e-015 5.0395 -0.09 2.4971 -7.38562e-007 1.65313e-006 -2.60071e-006 3.7921 -1.552 1.4806 2.56771e-006 3.13026e-006 -5.14696e-006 1.4655 -1.808 0.9609 5.34565e-007 4.25384e-006 -9.47574e-007 4.9141 -1.269 0.3591 -7.38562e-007 1.65313e-006 -2.60071e-006 3.1477 -1.685 0.8462 2.56771e-006 3.13026e-006 -5.14696e-006 0.8055 -1.585 0.7955 5.34565e-007 4.25384e-006 -9.47574e-007 -1.7069 20.075 5.0056 12.642 -49.7891 10.7684 -13.6458 -0.047 -4.849 14.2551 -0.854617 -34.2194 -28.3255 -0.9759 2.2888 76.7523 -1.01098 -4.85412 -22.1583 -0.53 10.8316 6.63681 5.36879 38.6575 -0.786 0.112 2.5817 1.59028e-015 3.18055e-015 -0 -0.3601 -0.878 4.2331 7.95139e-016 3.18055e-015 -0 -1.8127 -1.216 2.2227 0 0 -0 -0.9571 1.114 1.7695 7.95139e-016 3.18055e-015 -0 -4.1246 0.487 4.1451 3.97569e-015 0 4.77083e-015 -3.4052 -1.454 2.7682 1.59028e-015 0 -7.95139e-016 -1.4531 -1.795 1.2713 7.95139e-016 -3.18055e-015 -7.95139e-016 -5.6954 0.21 2.1184 3.97569e-015 0 4.77083e-015 -3.9766 -1.54 2.3863 1.59028e-015 0 -7.95139e-016 -1.4042 -1.926 1.125 7.95139e-016 -3.18055e-015 -7.95139e-016 -2.0956 0.66 -0.3894 7.95139e-016 3.18055e-015 -0 -5.0395 -0.09 2.4971 3.97569e-015 0 4.77083e-015 -3.7921 -1.552 1.4806 1.59028e-015 0 -7.95139e-016 -1.4655 -1.808 0.9609 7.95139e-016 -3.18055e-015 -7.95139e-016 -4.9141 -1.269 0.3592 3.97569e-015 0 4.77083e-015 -3.1477 -1.685 0.8462 1.59028e-015 0 -7.95139e-016 -0.8055 -1.585 0.7955 7.95139e-016 -3.18055e-015 -7.95139e-016 8.367 -8.2066 0.5982 34.3567 7.82945 88.7351 2.1923 -43.463 -0.4932 78.2696 46.5305 -101.529 0.7333 -45.8593 -2.6451 2.77846 40.8442 30.032 -8.367 -8.2066 0.5982 -133.274 -30.7643 -145.723 -2.1923 -43.463 -0.4931 -150.913 55.5052 150.953 -0.7333 -45.8593 -2.6451 0.607983 -20.0809 -2.50552 
